<svg xmlns="http://www.w3.org/2000/svg" viewBox="0 0 149.0 100" width="149.0" height="100"><path fill="#000" fill-rule="evenodd" d="M114.1 99.9C109.8 99.3 105.5 97.1 102.4 93.8L101.4 92.7L100.6 93.2C91.7 98.2 78.5 100.2 64.4 98.7C43.8 96.5 27.5 83.3 23.3 65.4C22.5 62.2 22.3 59.7 22.2 55.8C22.2 52.9 22.2 52.8 22 52.7C14.1 51.2 7.2 45.3 4.4 37.8C3.1 34.4 2.7 30.2 3.4 27.7L3.4 27.4L3 27.6C1.9 28.1 0.7 27.7 0.3 26.7C-0.3 25.7 0.1 22.4 1 19.4C4.2 9.4 12.7 2.1 23.1 0.4C33.8 -1.3 44.5 3.6 50.3 12.9C50.8 13.7 51.3 14.5 51.4 14.5C51.5 14.7 51.8 14.6 53.1 14C58.5 11.6 62.8 10.5 68.7 9.8C71.5 9.5 78.6 9.5 81.4 9.9C86.9 10.5 91.1 11.6 95.6 13.6C96.7 14.1 97.6 14.4 97.7 14.4C97.7 14.4 98.1 14 98.5 13.4C105.1 3.2 117.6 -2 128.7 0.8C139.3 3.5 147.5 12.5 148.9 22.9C149.3 26.4 148.8 27.8 147.1 27.8C146.7 27.8 146.2 27.7 146 27.6C145.6 27.4 145.6 27.4 145.7 27.7C145.9 28.7 146 29.7 145.9 31C145.5 41.1 137.5 50.5 127.3 52.6L126.1 52.9L126.1 55.4C126.2 56.8 126.1 58.6 126.1 59.4C126 60.2 125.9 61.2 125.9 61.7L125.8 62.5L126.7 63C131.8 65.7 135.4 70.9 136.6 77C136.9 78.4 136.9 82.4 136.6 83.8C134.9 92 127.8 98.7 119.4 99.8C118 100 115.4 100 114.1 99.9ZM118.7 94.6C124.9 93.8 129.9 89.2 131.2 83.1C132.9 75.1 127.4 67.2 119.4 66C111.5 64.9 104.1 70.3 102.7 78.1C101.1 87.6 109.2 95.8 118.7 94.6ZM77.1 92.7C83.6 92.4 89.3 91.1 94.3 88.9C96 88.1 98.1 87.1 98.1 86.9C98.1 86.9 98 86.5 97.8 86.2C96.9 83.5 96.8 79.4 97.5 76.3C99 69.9 104 64.2 110.2 61.9C112.3 61.1 114.2 60.8 116.5 60.7C118.6 60.6 118.4 60.8 118.5 58.8C119.2 51.4 117.7 43.8 114.3 37.6C108.3 26.6 95.8 18.5 81.8 16.6C61.6 13.9 41.2 23.6 33.1 39.7C29.5 46.9 28.5 54.8 30.2 63.1C32.8 76.1 43.1 86.4 58 90.7C62 91.9 65 92.4 70.6 92.8C71.9 92.8 75.2 92.8 77.1 92.7ZM111.9 88.8C111.1 88.6 110.6 88.1 110.3 87.4L110 86.7L110 80.4L110 74.1L110.3 73.6C111.1 71.7 114 71.5 115.2 73.2C115.7 73.9 115.7 74.5 115.7 80.8C115.6 86.2 115.6 86.8 115.4 87.2C114.8 88.5 113.2 89.3 111.9 88.8ZM120.2 88.8C119.6 88.5 118.9 87.8 118.7 87.2C118.4 86.3 118.5 74.4 118.8 73.8C119.9 71.3 123.7 71.6 124.2 74.2C124.3 74.6 124.4 76.7 124.3 80.9C124.3 87.6 124.3 87.2 123.6 88C122.9 88.9 121.2 89.2 120.2 88.8ZM71.5 82.8C67.6 82 64.4 79.5 62.4 75.8C58.5 68.4 60.9 54.2 67.2 47.8C73 41.9 80.8 44.2 84.8 52.8C86.8 57.3 87.8 61.7 87.8 66.9C87.7 72.2 86.4 75.9 83.2 79C79.9 82.3 75.7 83.7 71.5 82.8ZM36.2 59.8C35 59.2 34.3 57.9 34.6 56.7C35.1 54.9 37.5 52.5 40.3 51.1C44.9 48.7 50.2 49 54.4 51.8C56.1 52.9 57.7 54.7 58.1 56C58.7 57.9 56.9 59.8 54.8 59.3C54.4 59.2 54.1 58.9 53 57.8C51.8 56.6 51.6 56.4 50.7 56C48.5 54.9 46.1 54.8 43.9 55.6C42.1 56.3 41.2 57 39.3 59C38.6 59.9 37.2 60.2 36.2 59.8ZM110.6 59.8C109.9 59.6 109.3 59.2 109 58.8C108.9 58.7 108.5 58.2 108.1 57.8C104.6 54.1 98.6 54.2 95.5 57.9C94.6 59 94.1 59.3 93.1 59.3C90.8 59.3 89.8 57 91.1 54.9C93.6 51.1 99.4 48.8 104.2 49.7C108.3 50.4 112.2 53 113.6 55.8C114.7 58 112.9 60.4 110.6 59.8ZM124.8 40.6C134.5 34.6 135.1 22.6 125.9 18C121.1 15.6 115 16.8 110.3 21L109.8 21.4L110.7 22.2C115.7 26.6 119.2 31.2 121.8 36.5C122.6 38.1 123.7 40.7 123.7 40.9C123.7 41.2 123.9 41.1 124.8 40.6ZM25.7 39C28.3 32.8 33 26.7 38.4 22.3L39.6 21.3L39 20.8C33.9 16.2 27.2 15.5 21.9 19C15.3 23.4 15 32 21.2 38.1C22.5 39.5 24.8 41.1 24.9 40.8C25 40.7 25.3 39.9 25.7 39Z"/></svg>
