<svg xmlns="http://www.w3.org/2000/svg" viewBox="0 0 64 64">
  <g fill="currentColor">
    <circle cx="14" cy="21" r="9.5"/>
    <circle cx="49" cy="21" r="9.5"/>
    <path d="M31.5 11.5c-13.4 0-22.5 8.8-22.5 22.2 0 12.9 9.6 21.8 22.5 21.8 6.1 0 11.4-2 15.4-5.5-1.2-2-1.9-4.3-1.9-6.8 0-5.3 3.1-9.9 7.6-12.1-1.1-11.9-9.7-19.6-21.1-19.6z"/>
  </g>
  <g fill="#fff">
    <circle cx="14" cy="21" r="5"/>
    <circle cx="49" cy="21" r="5"/>
  </g>
  <path d="M20.5 33c1.4-2.3 5.1-2.3 6.5 0M35.5 33c1.4-2.3 5.1-2.3 6.5 0" fill="none" stroke="#fff" stroke-width="3.5" stroke-linecap="round"/>
  <ellipse cx="31.5" cy="38" rx="6.5" ry="8.5" fill="#fff"/>
  <circle cx="51" cy="45" r="11" fill="currentColor"/>
  <path d="M51 39v6h5" fill="none" stroke="#fff" stroke-width="3" stroke-linecap="round" stroke-linejoin="round"/>
</svg>